<?xml version="1.0" encoding="UTF-8"?>
<svg width="20px" height="12px" viewBox="0 0 20 12" version="1.1" xmlns="http://www.w3.org/2000/svg" xmlns:xlink="http://www.w3.org/1999/xlink">
    <!-- Generator: Sketch 59.1 (86144) - https://sketch.com -->
    <title>下箭头</title>
    <desc>Created with Sketch.</desc>
    <g id="页面-1" stroke="none" stroke-width="1" fill="none" fill-rule="evenodd">
        <g id="切换" transform="translate(-152.000000, -164.000000)">
            <g id="编组-8" transform="translate(30.000000, 155.000000)">
                <g id="下箭头" transform="translate(120.000000, 3.000000)">
                    <rect id="Rectangle-3" x="0" y="0" width="24" height="24"></rect>
                    <path d="M6.17748765,11.4621826 C6.16413234,11.4881676 6.14071935,11.5108945 6.13068913,11.5368795 C5.89672405,12.0111264 5.97358573,12.5958029 6.38803974,12.9758573 L15.8336175,21.6584356 C16.3483462,22.1326824 17.1605464,22.1099555 17.648537,21.6097237 C18.1365276,21.1094918 18.1131421,20.3201665 17.5984134,19.8459197 L9.12211166,12.0533487 L17.5649702,4.14708981 C18.0763463,3.66955815 18.0897291,2.88025955 17.5983859,2.38328586 C17.3477129,2.12992515 17.0101206,2 16.6758809,2 C16.3550239,2 16.0341394,2.11691928 15.786819,2.35083795 L6.42813312,11.1178609 C6.41142525,11.1340982 6.4047476,11.1600833 6.38468717,11.1763206 C6.37130439,11.1893264 6.35794909,11.1990475 6.34124122,11.2120533 C6.26437954,11.2867503 6.22761124,11.3777112 6.17748765,11.4621559 L6.17748765,11.4621559 L6.17748765,11.4621826 Z" id="Shape" fill="#999999" fill-rule="nonzero" transform="translate(12.000000, 12.000000) scale(-1, 1) rotate(-90.000000) translate(-12.000000, -12.000000) "></path>
                </g>
            </g>
        </g>
    </g>
</svg>